# xmcd
#
# Track frame offsets:
#	150
#	9470
#	18665
#	28290
#	38347
#	49020
#	59982
#	70392
#	80940
#	90510
#	102260
#	113565
#	123507
#	134392
#	143502
#	155590
#	165137
#	175672
#	184470
#	193642
#	203087
#	212702
#	223472
#	233895
#	244190
#	254577
#	265050
#	274587
#	284872
#	294050
#
# Disc length: 4044 seconds
#
# Revision: 0
# Processed by: cddbd v1.4PL0 Copyright (c) Steve Scherf et al.
# Submitted via: EasyCDDAExtractor 4.6.0.1
#
DISCID=c60fca1e
DTITLE=Johnnie and Jack and the Tennessee Mountain Boys - Johnnie and Jack and the
DTITLE=Tennessee Mountain Boys Vol 4
DYEAR=1900
DGENRE=Country
TTITLE0=Kiss Crazy Baby
TTITLE1=Beware Of It
TTITLE2=Sincerely
TTITLE3=Carry On
TTITLE4=No One Dear But You
TTITLE5=We Live In Two Different Worlds
TTITLE6=So Lovely Baby
TTITLE7=Look Out
TTITLE8=Don't Waste Your Tears
TTITLE9=Weary Moments
TTITLE10=Dream When You're Lonely
TTITLE11=Tom Cats Kitten
TTITLE12=Feet Of Clay
TTITLE13=I Want To Be Loved
TTITLE14=You Can't Divorce My Heart
TTITLE15=Baby, Its In The Making
TTITLE16=I Loved You Better Than You Knew
TTITLE17=I Wonder Why You Say Goodbye
TTITLE18=Love, Love, Love
TTITLE19=What's The Reason I'm Not Pleasing You
TTITLE20=Love Fever
TTITLE21=Live And Let Live
TTITLE22=When My Blue Moon Turns To Gold Again
TTITLE23=Why Not Confess
TTITLE24=The Banana Boat Song
TTITLE25=Mister Clock
TTITLE26=Love Me Now
TTITLE27=If Tears Would Bring You Back
TTITLE28=Thats Why I'm Leavin'
TTITLE29=Oh Boy, I Love Her
EXTD=
EXTT0=
EXTT1=
EXTT2=
EXTT3=
EXTT4=
EXTT5=
EXTT6=
EXTT7=
EXTT8=
EXTT9=
EXTT10=
EXTT11=
EXTT12=
EXTT13=
EXTT14=
EXTT15=
EXTT16=
EXTT17=
EXTT18=
EXTT19=
EXTT20=
EXTT21=
EXTT22=
EXTT23=
EXTT24=
EXTT25=
EXTT26=
EXTT27=
EXTT28=
EXTT29=
PLAYORDER=
